HIERARCHY
ROOT Hips
{
	OFFSET -1.602300 6.242603 43.997101
	CHANNELS 6 Xposition Yposition Zposition Zrotation Xrotation Yrotation
	JOINT Chest
	{
		OFFSET -0.204900 1.598101 7.917301
		CHANNELS 6 Xposition Yposition Zposition Zrotation Xrotation Yrotation
		JOINT Chest2
		{
			OFFSET 0.000000 0.000000 3.404099
			CHANNELS 6 Xposition Yposition Zposition Zrotation Xrotation Yrotation
			JOINT Neck
			{
				OFFSET 0.000000 0.000000 7.928600
				CHANNELS 6 Xposition Yposition Zposition Zrotation Xrotation Yrotation
				JOINT Head
				{
					OFFSET 0.000000 0.000000 2.173897
					CHANNELS 6 Xposition Yposition Zposition Zrotation Xrotation Yrotation
					End Site
					{
						OFFSET 0.000000 0.000001 10.404503
					}
				}
			}
			JOINT LeftCollar
			{
				OFFSET 2.833800 -1.396299 4.843300
				CHANNELS 6 Xposition Yposition Zposition Zrotation Xrotation Yrotation
				JOINT LeftShoulder
				{
					OFFSET 4.363600 0.000000 0.000000
					CHANNELS 6 Xposition Yposition Zposition Zrotation Xrotation Yrotation
					JOINT LeftElbow
					{
						OFFSET 0.000000 -0.000001 -10.306900
						CHANNELS 6 Xposition Yposition Zposition Zrotation Xrotation Yrotation
						JOINT LeftWrist
						{
							OFFSET 0.000000 -0.000001 -12.404900
							CHANNELS 6 Xposition Yposition Zposition Zrotation Xrotation Yrotation
							End Site
							{
								OFFSET 0.000000 0.000000 -2.173901
							}
						}
					}
				}
			}
			JOINT RightCollar
			{
				OFFSET -2.354800 -1.897200 5.063099
				CHANNELS 6 Xposition Yposition Zposition Zrotation Xrotation Yrotation
				JOINT RightShoulder
				{
					OFFSET -4.375800 0.000000 0.000000
					CHANNELS 6 Xposition Yposition Zposition Zrotation Xrotation Yrotation
					JOINT RightElbow
					{
						OFFSET 0.000000 -0.000001 -10.005001
						CHANNELS 6 Xposition Yposition Zposition Zrotation Xrotation Yrotation
						JOINT RightWrist
						{
							OFFSET 0.000000 -0.000001 -13.174900
							CHANNELS 6 Xposition Yposition Zposition Zrotation Xrotation Yrotation
							End Site
							{
								OFFSET 0.000000 0.000000 -2.173901
							}
						}
					}
				}
			}
		}
	}
	JOINT LeftHip
	{
		OFFSET 2.240600 0.386800 -2.614101
		CHANNELS 6 Xposition Yposition Zposition Zrotation Xrotation Yrotation
		JOINT LeftKnee
		{
			OFFSET 0.000000 -0.000001 -18.592899
			CHANNELS 6 Xposition Yposition Zposition Zrotation Xrotation Yrotation
			JOINT LeftAnkle
			{
				OFFSET 0.000000 -0.000001 -18.765800
				CHANNELS 6 Xposition Yposition Zposition Zrotation Xrotation Yrotation
				End Site
				{
					OFFSET 0.000000 -8.655000 0.000000
				}
			}
		}
	}
	JOINT RightHip
	{
		OFFSET -2.014900 -0.220900 -2.615898
		CHANNELS 6 Xposition Yposition Zposition Zrotation Xrotation Yrotation
		JOINT RightKnee
		{
			OFFSET 0.000000 -0.000001 -18.633900
			CHANNELS 6 Xposition Yposition Zposition Zrotation Xrotation Yrotation
			JOINT RightAnkle
			{
				OFFSET 0.000000 -0.000001 -18.285101
				CHANNELS 6 Xposition Yposition Zposition Zrotation Xrotation Yrotation
				End Site
				{
					OFFSET 0.000000 -7.524500 0.000000
				}
			}
		}
	}
}
MOTION
Frames: 6
Frame Time: 0.041667
-5.671899 25.142904 7.819702 2.523236 7.471187 5.480643 -0.204901 1.598103 7.917309 -2.408275 2.279733 -4.674331 0.000000 0.000000 3.404096 1.051553 -15.058168 -1.009421 0.000000 -0.000001 7.928602 0.956793 4.874631 -2.508798 0.000000 -0.000002 2.173907 1.171266 -2.424860 1.411897 2.833803 -1.396301 4.843307 2.386152 11.624563 22.471246 4.363592 0.000002 -0.000006 -7.193800 -3.808039 -99.574712 -0.000002 0.000003 -10.306899 274.723186 -175.001700 183.574639 -0.000000 0.000001 -12.404891 -485.583392 184.069842 -175.078567 -2.354802 -1.897204 5.063103 9.130400 10.973507 -20.197530 -4.375787 -0.000001 0.000001 -0.294073 1.047184 92.403177 -0.000001 0.000008 -10.004998 -169.905942 -139.093374 -167.729980 0.000003 -0.000000 -13.174895 -195.484208 -159.692937 192.650581 2.240599 0.386808 -2.614101 145.923495 -32.541907 116.600591 0.000000 -0.000001 -18.592892 -113.007754 37.075899 136.859164 -0.000001 0.000002 -18.765799 6.264115 30.895507 13.655218 -2.014896 -0.220893 -2.615901 -117.792759 -11.181518 -103.346110 -0.000000 0.000005 -18.633881 184.700104 25.876310 -183.426246 -0.000006 -0.000003 -18.285086 -8.449384 35.160390 -214.687558
-5.669099 25.139004 7.820415 2.527442 7.513298 5.466904 -0.204901 1.598100 7.917306 -2.418370 2.210190 -4.674707 -0.000001 0.000001 3.404099 1.199622 -15.020935 -1.261403 0.000000 0.000001 7.928596 0.790034 4.787069 -2.170881 0.000000 0.000001 2.173905 1.250756 -2.470116 1.367577 2.833804 -1.396301 4.843302 2.170453 11.678793 22.817980 4.363589 0.000004 0.000002 -7.299083 -3.837740 -99.894556 0.000001 0.000003 -10.306893 274.720426 -175.175993 183.449182 0.000002 -0.000003 -12.404892 -485.528806 184.098979 -175.326366 -2.354800 -1.897200 5.063099 8.921705 10.968433 -20.070832 -4.375797 -0.000001 0.000002 -0.189483 1.197032 92.993948 -0.000000 0.000005 -10.004987 -188.569037 -142.385689 -179.802654 0.000004 0.000003 -13.174891 -187.685348 -157.390494 192.800053 2.240598 0.386802 -2.614101 145.848554 -32.219993 116.520719 -0.000002 -0.000000 -18.592890 -113.122665 36.869238 136.802692 -0.000003 0.000001 -18.765799 6.464948 30.885880 13.645278 -2.014897 -0.220897 -2.615899 -117.810491 -11.423567 -103.371361 -0.000001 0.000002 -18.633881 184.584606 25.915430 -183.480656 -0.000007 -0.000003 -18.285086 -8.379621 35.202669 -214.801991
-5.666200 25.134201 7.821617 2.534192 7.558352 5.454458 -0.204901 1.598100 7.917311 -2.430242 2.140232 -4.682763 -0.000000 0.000005 3.404102 1.254438 -15.008070 -1.250398 -0.000001 -0.000001 7.928601 0.799880 4.722994 -2.158156 0.000001 -0.000001 2.173905 1.276242 -2.525578 1.352579 2.833803 -1.396301 4.843302 2.103752 11.747913 22.870407 4.363590 0.000002 -0.000006 -7.401996 -3.869948 -100.199777 -0.000003 0.000002 -10.306894 274.646414 -175.353851 183.303672 -0.000000 -0.000000 -12.404890 -485.379853 184.058435 -175.550574 -2.354802 -1.897200 5.063097 8.929974 10.977882 -20.210388 -4.375792 0.000002 -0.000007 -0.153894 1.163155 93.509518 -0.000001 0.000006 -10.004995 -199.299469 -149.083181 -185.102703 0.000001 0.000001 -13.174891 -185.640539 -155.505499 192.893613 2.240599 0.386804 -2.614103 145.803051 -32.125504 116.443305 -0.000001 -0.000001 -18.592892 -112.965189 36.676364 136.684325 -0.000002 0.000001 -18.765800 6.693673 30.876789 13.552038 -2.014896 -0.220894 -2.615898 -117.840803 -11.408996 -103.412185 -0.000001 0.000002 -18.633884 184.583076 25.905854 -183.470233 -0.000007 -0.000002 -18.285086 -8.377019 35.202522 -214.802141
-5.663099 25.128403 7.823410 2.545990 7.607626 5.445291 -0.204901 1.598103 7.917304 -2.446581 2.070048 -4.699511 -0.000000 -0.000000 3.404103 1.309949 -14.994125 -1.239078 0.000001 0.000002 7.928595 0.777842 4.660081 -2.108327 -0.000000 0.000002 2.173900 1.306978 -2.600028 1.347677 2.833805 -1.396300 4.843301 2.040285 11.799294 22.912498 4.363592 0.000004 -0.000003 -7.488074 -3.892001 -100.462732 -0.000002 -0.000002 -10.306892 274.631771 -175.513718 183.181466 -0.000001 -0.000002 -12.404900 -485.290842 183.957867 -175.726834 -2.354802 -1.897199 5.063098 9.012130 11.021192 -20.295554 -4.375789 -0.000002 -0.000004 -0.238518 1.397136 93.848835 0.000001 0.000007 -10.004995 -204.217643 -156.976052 -185.552252 -0.000000 0.000003 -13.174892 -184.272698 -155.023369 193.515133 2.240600 0.386806 -2.614102 145.749789 -32.054146 116.347177 0.000000 0.000002 -18.592894 -112.729021 36.446019 136.530974 -0.000002 0.000002 -18.765800 6.971983 30.868326 13.440960 -2.014894 -0.220895 -2.615900 -117.878861 -11.377645 -103.452627 0.000000 0.000003 -18.633883 184.590247 25.890139 -183.457870 -0.000006 -0.000003 -18.285086 -8.375962 35.200787 -214.801895
-5.659899 25.121902 7.825405 2.548693 7.658907 5.436356 -0.204900 1.598099 7.917306 -2.453655 2.004546 -4.712568 -0.000000 -0.000000 3.404098 1.362959 -14.985112 -1.228666 -0.000001 -0.000002 7.928596 0.764544 4.591168 -2.064260 0.000001 0.000005 2.173906 1.316444 -2.682316 1.358705 2.833804 -1.396303 4.843300 1.985415 11.818440 22.944875 4.363593 0.000001 -0.000013 -7.534466 -3.891513 -100.664298 -0.000001 0.000004 -10.306893 274.661168 -175.607797 183.118656 -0.000000 0.000000 -12.404895 -485.281280 183.863474 -175.844299 -2.354804 -1.897205 5.063104 9.267971 11.052111 -21.012671 -4.375786 0.000000 -0.000002 -0.632297 2.179978 94.619703 0.000000 0.000005 -10.004990 -204.155420 -165.501877 -182.840121 0.000004 0.000004 -13.174894 -180.993702 -154.144461 193.669058 2.240602 0.386802 -2.614107 145.701404 -31.997988 116.235913 -0.000001 -0.000002 -18.592890 -112.474904 36.215528 136.376844 -0.000003 0.000000 -18.765800 7.251199 30.867804 13.294147 -2.014895 -0.220896 -2.615901 -117.910416 -11.339115 -103.494810 -0.000001 0.000003 -18.633886 184.604304 25.868790 -183.445767 -0.000007 -0.000004 -18.285088 -8.375076 35.198150 -214.803384
-5.656899 25.114801 7.827507 2.561212 7.718349 5.433027 -0.204901 1.598103 7.917300 -2.470482 1.936301 -4.733372 -0.000000 0.000005 3.404104 1.413600 -14.978858 -1.218893 0.000000 -0.000002 7.928600 0.766509 4.516351 -2.035318 -0.000000 0.000004 2.173907 1.288102 -2.778102 1.382389 2.833806 -1.396304 4.843303 1.939655 11.804681 22.962814 4.363589 0.000001 -0.000007 -7.556788 -3.864983 -100.805567 -0.000001 -0.000001 -10.306899 274.375256 -175.623916 183.063823 0.000002 -0.000000 -12.404895 -484.984248 183.783534 -175.970057 -2.354804 -1.897203 5.063101 9.438385 11.131377 -20.996160 -4.375792 0.000003 -0.000003 -0.954935 3.006638 94.619417 0.000002 0.000002 -10.004992 -201.266714 -171.643788 -180.044811 0.000005 0.000001 -13.174897 -180.407986 -155.231130 194.290496 2.240602 0.386805 -2.614109 145.644714 -31.960627 116.123174 -0.000001 -0.000004 -18.592888 -112.215206 36.004062 136.231169 -0.000004 0.000001 -18.765800 7.516340 30.885723 13.098342 -2.014895 -0.220895 -2.615901 -117.953679 -11.291817 -103.538988 -0.000001 0.000006 -18.633884 184.620409 25.844442 -183.436068 -0.000007 -0.000003 -18.285084 -8.374311 35.195401 -214.808643
